<?xml version="1.0" encoding="UTF-8" standalone="no"?>
<svg
   xmlns:dc="http://purl.org/dc/elements/1.1/"
   xmlns:cc="http://creativecommons.org/ns#"
   xmlns:rdf="http://www.w3.org/1999/02/22-rdf-syntax-ns#"
   xmlns:svg="http://www.w3.org/2000/svg"
   xmlns="http://www.w3.org/2000/svg"
   xmlns:sodipodi="http://sodipodi.sourceforge.net/DTD/sodipodi-0.dtd"
   xmlns:inkscape="http://www.inkscape.org/namespaces/inkscape"
   width="210mm"
   height="297mm"
   viewBox="0 0 210 297"
   version="1.1"
   id="svg1418"
   inkscape:version="1.0.1 (3bc2e813f5, 2020-09-07)"
   sodipodi:docname="icon.svg">
  <defs
     id="defs1412" />
  <sodipodi:namedview
     id="base"
     pagecolor="#ffffff"
     bordercolor="#666666"
     borderopacity="1.0"
     inkscape:pageopacity="0.0"
     inkscape:pageshadow="2"
     inkscape:zoom="0.35"
     inkscape:cx="322.4986"
     inkscape:cy="656.92906"
     inkscape:document-units="mm"
     inkscape:current-layer="layer1"
     inkscape:document-rotation="0"
     showgrid="false"
     inkscape:window-width="1920"
     inkscape:window-height="996"
     inkscape:window-x="0"
     inkscape:window-y="51"
     inkscape:window-maximized="0" />
  <metadata
     id="metadata1415">
    <rdf:RDF>
      <cc:Work
         rdf:about="">
        <dc:format>image/svg+xml</dc:format>
        <dc:type
           rdf:resource="http://purl.org/dc/dcmitype/StillImage" />
        <dc:title></dc:title>
      </cc:Work>
    </rdf:RDF>
  </metadata>
  <g
     inkscape:label="Layer 1"
     inkscape:groupmode="layer"
     id="layer1">
    <g
       id="g1388"
       transform="translate(-27.291663,16.208333)">
      <path
         id="path1372"
         style="opacity:1;fill:#fcfcfc;fill-opacity:1;stroke:none;stroke-width:2.21745;stroke-miterlimit:4;stroke-dasharray:none;stroke-opacity:1"
         d="M 96.608413,13.847186 C 101.03333,20.683373 94.728432,35.503849 82.526023,46.949647 70.323615,58.395445 56.844502,62.132274 52.419582,55.296087 47.994662,48.4599 57.816085,39.009847 70.018494,27.564049 82.220902,16.118251 92.183493,7.0109988 96.608413,13.847186 Z"
         sodipodi:nodetypes="sssss" />
      <path
         id="path1047"
         style="fill:#ffffff;fill-opacity:1;stroke:#000000;stroke-width:8.60349;stroke-miterlimit:4;stroke-dasharray:none;stroke-opacity:1"
         d="M 94.606597,8.7816034 V 21.963321 c 0,18.767182 -15.108979,33.874678 -33.87619,33.874678 H 46.326575 V 221.92552 c 0,18.76719 15.107502,33.87621 33.874684,33.87621 H 184.47264 c 18.76724,0 33.87622,-15.10902 33.87622,-33.87621 V 42.657809 c 0,-18.767191 -15.10898,-33.8762056 -33.87622,-33.8762056 z" />
      <rect
         style="fill:#000000;fill-opacity:1;stroke:#000000;stroke-width:3.63414;stroke-miterlimit:4;stroke-dasharray:none;stroke-opacity:1"
         id="rect1049"
         width="91.162498"
         height="5.1558728"
         x="107.56931"
         y="36.583954"
         ry="2.5779364" />
      <rect
         style="fill:#000000;fill-opacity:1;stroke:#000000;stroke-width:4.38469;stroke-miterlimit:4;stroke-dasharray:none;stroke-opacity:1"
         id="rect1051"
         width="132.70644"
         height="5.1558728"
         x="66.025375"
         y="67.627213"
         ry="2.5779364" />
      <rect
         style="fill:#000000;fill-opacity:1;stroke:#000000;stroke-width:4.38469;stroke-miterlimit:4;stroke-dasharray:none;stroke-opacity:1"
         id="rect1053"
         width="132.70644"
         height="5.1558728"
         x="66.025375"
         y="98.670479"
         ry="2.5779364" />
      <rect
         style="fill:#000000;fill-opacity:1;stroke:#000000;stroke-width:4.38469;stroke-miterlimit:4;stroke-dasharray:none;stroke-opacity:1"
         id="rect1055"
         width="132.70644"
         height="5.1558728"
         x="66.025375"
         y="129.71376"
         ry="2.5779364" />
      <rect
         style="fill:#000000;fill-opacity:1;stroke:#000000;stroke-width:4.38469;stroke-miterlimit:4;stroke-dasharray:none;stroke-opacity:1"
         id="rect1057"
         width="132.70644"
         height="5.1558728"
         x="65.943642"
         y="160.757"
         ry="2.5779364" />
      <rect
         style="fill:#000000;fill-opacity:1;stroke:#000000;stroke-width:4.38469;stroke-miterlimit:4;stroke-dasharray:none;stroke-opacity:1"
         id="rect1059"
         width="132.70644"
         height="5.1558728"
         x="65.943642"
         y="191.80025"
         ry="2.5779364" />
      <rect
         style="fill:#000000;fill-opacity:1;stroke:#000000;stroke-width:4.38469;stroke-miterlimit:4;stroke-dasharray:none;stroke-opacity:1"
         id="rect1061"
         width="132.70644"
         height="5.1558728"
         x="65.943642"
         y="222.84349"
         ry="2.5779364" />
      <rect
         style="fill:#000000;fill-opacity:1;stroke:none;stroke-width:6.8431;stroke-miterlimit:4;stroke-dasharray:none;stroke-opacity:1"
         id="rect1063"
         width="8.2194481"
         height="67.458397"
         x="66.361595"
         y="-66.839378"
         transform="matrix(0.63857147,0.76956253,-0.71710367,0.69696652,0,0)" />
      <path
         id="path1288"
         style="fill:#c0392b;fill-opacity:1;stroke:#ffffff;stroke-width:1.39065;stroke-linecap:butt;stroke-linejoin:miter;stroke-miterlimit:4;stroke-dasharray:none;stroke-opacity:1"
         d="m 141.16964,18.529876 c 0,0 -5.35799,1.820445 -13.20229,7.63726 -2.94375,2.181003 -6.37332,5.156189 -9.5002,9.14156 -2.25988,2.887004 -4.3851,6.413347 -5.92574,10.607104 -1.28423,3.540019 -2.10785,7.467885 -2.27893,11.650453 -0.15562,5.155959 0.54079,10.387425 1.96216,15.488459 -1.15509,-1.814742 -2.19445,-3.399739 -2.98122,-4.603853 -3.26057,-4.990152 -5.13198,-7.894608 -5.13198,-7.894608 0,0 0.47207,3.435212 1.64382,9.31726 0.86645,4.349384 3.40961,15.670172 4.16874,23.465752 0.46394,4.740045 0.58199,9.823797 -0.11472,14.701947 -0.66679,4.8943 -2.11538,9.7998 -4.22765,14.58309 -1.36626,3.09395 -3.88407,6.17213 -6.792865,9.87846 -3.514143,4.29358 -7.497148,8.49542 -11.622548,13.00954 -1.315013,1.43186 -2.631892,2.87097 -3.945495,4.32532 -3.184208,3.52539 -6.426835,7.22537 -9.598896,11.08356 -4.476629,5.43411 -8.801569,11.17681 -12.688629,17.32556 -3.71983,5.83467 -6.93896,12.04929 -9.20151,18.67483 -2.2312,6.32531 -3.14859,13.01634 -2.4505,19.43396 0.40448,3.38147 1.32243,6.51524 2.589,9.30485 1.51598,3.30355 3.46345,6.02838 5.47976,8.22637 4.96671,5.33681 10.54132,8.30326 13.85549,9.85935 3.556667,1.66997 5.623944,2.30735 5.623944,2.30735 0,0 -1.609347,-1.4653 -4.173387,-4.28656 -2.378847,-2.61747 -6.210707,-7.16894 -8.372617,-12.50879 -0.88119,-2.14284 -1.55318,-4.48916 -1.76785,-6.85075 -0.19093,-1.98243 -0.0931,-4.03986 0.30334,-6.07301 0.6873,-3.93294 2.63417,-7.76132 5.2219,-11.92796 2.80328,-4.40336 6.337569,-8.5063 10.389549,-13.00799 4.279927,-4.70602 8.764143,-9.18168 13.532509,-14.09061 3.337261,-3.42671 6.697472,-6.9179 9.984405,-10.55801 1.35074,-1.49589 2.69921,-3.02838 4.03748,-4.59714 4.16367,-4.85984 8.30849,-10.18913 12.0003,-16.11529 3.1205,-4.84468 5.96002,-10.60585 7.60005,-17.22014 1.04925,-4.73392 1.5261,-9.45118 1.48983,-14.04152 0.39229,0.55765 0.78998,1.1113 1.19941,1.65468 2.4971,3.34051 5.22687,6.4292 8.02897,9.33483 1.98583,2.06327 4.00469,4.0326 5.98258,5.90506 0.81597,0.77251 1.63318,1.53642 2.44894,2.29599 2.56015,2.39549 5.02505,4.61905 7.22592,6.91586 0.96002,1.0015 1.84203,1.95832 2.61018,2.91868 0.68486,0.86779 1.27797,1.65838 1.71462,2.42363 1.42151,2.6395 2.4688,5.37861 3.06906,8.14627 0.61665,2.75709 0.77698,5.66782 0.72399,8.39793 -0.0654,3.17875 -0.47665,6.60507 -0.79116,9.16895 -0.74272,6.01207 -1.06299,9.82989 -1.06299,9.82989 0,0 1.86902,-3.2742 4.69067,-8.69662 1.23441,-2.36787 2.78415,-5.50363 3.99717,-9.00307 1.03327,-2.98141 1.86168,-6.45057 2.06138,-10.30531 0.12898,-2.7715 -0.083,-5.64214 -0.66301,-8.52713 3.74883,3.48703 7.3532,6.87433 10.6686,10.33425 2.05819,2.14711 3.94973,4.19862 5.59655,6.2575 1.46829,1.86046 2.74012,3.55547 3.67627,5.19607 3.04755,5.65881 5.29304,11.53098 6.57996,17.46456 1.32203,5.91093 1.66536,12.15199 1.55184,18.0051 -0.1401,6.8149 -1.02276,14.16048 -1.69706,19.6572 -1.59231,12.88927 -2.27893,21.07365 -2.27893,21.07365 0,0 4.00743,-7.01871 10.05675,-18.64382 2.64647,-5.07645 5.96891,-11.79977 8.56951,-19.30218 2.21521,-6.39186 3.99072,-13.82911 4.41885,-22.09323 0.38661,-8.30706 -0.64508,-17.02971 -3.283,-25.67078 -1.23708,-3.82503 -2.82437,-7.3354 -4.59662,-10.50427 -1.96231,-3.54259 -4.12347,-6.82427 -6.36964,-9.86813 -5.09289,-6.90769 -10.68347,-13.04006 -16.25224,-18.59577 -1.79049,-1.79389 -3.59053,-3.54277 -5.38933,-5.24619 -4.37733,-4.14519 -8.82978,-8.10078 -13.24829,-11.97963 -6.31448,-5.557798 -12.2394,-10.611972 -17.93586,-15.968015 -5.39751,-5.127524 -10.1221,-9.816398 -13.98002,-14.943272 -3.57097,-4.857527 -6.32401,-9.361352 -7.54373,-14.114901 -0.68099,-2.4534 -0.99864,-4.965872 -0.95498,-7.413501 0.0363,-2.914557 0.63434,-5.85439 1.50844,-8.564851 1.21607,-3.770902 3.09104,-7.268707 4.86068,-10.112044 4.79115,-7.685476 8.90127,-11.67319 8.90127,-11.67319 z" />
      <rect
         style="opacity:1;fill:#000000;fill-opacity:1;stroke:none;stroke-width:0.868687;stroke-miterlimit:4;stroke-dasharray:none;stroke-opacity:1"
         id="rect1341"
         width="4.1972075"
         height="56.791836"
         x="46.428802"
         y="177.77425" />
      <rect
         style="opacity:1;fill:#000000;fill-opacity:1;stroke:none;stroke-width:0.868687;stroke-miterlimit:4;stroke-dasharray:none;stroke-opacity:1"
         id="rect1343"
         width="4.1972075"
         height="56.791836"
         x="214.06024"
         y="152.32652" />
    </g>
  </g>
</svg>
